<?xml version="1.0" encoding="UTF-8"?>
<svg width="24px" height="24px" viewBox="0 0 24 24" version="1.1" xmlns="http://www.w3.org/2000/svg">
    <path d="M12,22 C8.13400675,22 5,18.8659932 5,15 C5,12.2385763 7,10 7,10 C7,10 9,12.2385763 9,15 C9,16.1045695 9.8954305,17 11,17 C12.1045695,17 13,16.1045695 13,15 C13,11.1340068 10,8 10,8 C10,8 15,10.2385763 15,15 C15,18.8659932 11.8659932,22 8,22 L12,22 Z M12,2 C15.8659932,2 19,5.13400675 19,9 C19,11.7614237 17,14 17,14 C17,14 15,11.7614237 15,9 C15,7.8954305 14.1045695,7 13,7 C11.8954305,7 11,7.8954305 11,9 C11,12.8659932 14,16 14,16 C14,16 9,13.7614237 9,9 C9,5.13400675 12.1340068,2 16,2 L12,2 Z" fill="currentColor"></path>
</svg> 