<?xml version="1.0" encoding="UTF-8"?>
<svg width="24px" height="24px" viewBox="0 0 24 24" version="1.1" xmlns="http://www.w3.org/2000/svg">
    <path d="M17,3 L21,3 C21.5522847,3 22,3.44771525 22,4 L22,8 C22,8.55228475 21.5522847,9 21,9 L17,9 C16.4477153,9 16,8.55228475 16,8 L16,4 C16,3.44771525 16.4477153,3 17,3 Z M3,16 L7,16 C7.55228475,16 8,16.4477153 8,17 L8,21 C8,21.5522847 7.55228475,22 7,22 L3,22 C2.44771525,22 2,21.5522847 2,21 L2,17 C2,16.4477153 2.44771525,16 3,16 Z M10,9 L14,9 C14.5522847,9 15,9.44771525 15,10 L15,14 C15,14.5522847 14.5522847,15 14,15 L10,15 C9.44771525,15 9,14.5522847 9,14 L9,10 C9,9.44771525 9.44771525,9 10,9 Z" fill="currentColor" transform="translate(12.000000, 12.500000) rotate(-45.000000) translate(-12.000000, -12.500000)"></path>
</svg> 