<?xml version="1.0" encoding="UTF-8"?>
<svg width="24px" height="24px" viewBox="0 0 24 24" version="1.1" xmlns="http://www.w3.org/2000/svg">
    <path d="M2,16 L5.5,16 C5.5,14.5 6.5,13.5 8,13.5 C9.5,13.5 10.5,14.5 10.5,16 L13.5,16 C13.5,14.5 14.5,13.5 16,13.5 C17.5,13.5 18.5,14.5 18.5,16 L22,16 L22,18 L18.5,18 C18.5,19.5 17.5,20.5 16,20.5 C14.5,20.5 13.5,19.5 13.5,18 L10.5,18 C10.5,19.5 9.5,20.5 8,20.5 C6.5,20.5 5.5,19.5 5.5,18 L2,18 L2,16 Z M12,3 L20,11 L18.5857864,12.4142136 L12,5.82842712 L5.41421356,12.4142136 L4,11 L12,3 Z" fill="currentColor"></path>
</svg> 