<?xml version="1.0" encoding="UTF-8"?>
<svg width="24px" height="24px" viewBox="0 0 24 24" version="1.1" xmlns="http://www.w3.org/2000/svg">
    <path d="M12,20 C8.13400675,20 5,18.0710678 5,15.7368421 C5,14.1302219 6.0754962,12.6853767 7.8613281,11.7641602 C7.8621314,11.7637147 7.86293465,11.7632691 7.86373791,11.7628236 C9.10550635,11.1482077 10.5397134,10.7894737 12,10.7894737 C13.4602866,10.7894737 14.8944936,11.1482077 16.1362621,11.7628236 C16.1370653,11.7632691 16.1378686,11.7637147 16.1386719,11.7641602 C17.9245038,12.6853767 19,14.1302219 19,15.7368421 C19,18.0710678 15.8659932,20 12,20 Z M12,3 C13.1045695,3 14,3.8954305 14,5 C14,6.1045695 13.1045695,7 12,7 C10.8954305,7 10,6.1045695 10,5 C10,3.8954305 10.8954305,3 12,3 Z" fill="currentColor"></path>
</svg> 