<?xml version="1.0" encoding="UTF-8"?>
<svg width="24px" height="24px" viewBox="0 0 24 24" version="1.1" xmlns="http://www.w3.org/2000/svg">
    <path d="M12.7324116,2.67279962 L22.7324116,19.6727996 C23.0751612,20.2740372 22.9027948,21.0224699 22.3424116,21.4023996 C22.1380802,21.5442248 21.8978292,21.6209814 21.6506148,21.6227996 L3.65061484,21.6227996 C2.98377534,21.6227996 2.44061484,21.0796391 2.44061484,20.4127996 C2.44243305,20.1655852 2.51918962,19.9253342 2.66101484,19.7210028 L12.6610148,2.72100282 C13.0409446,2.16061962 13.7893773,1.98825318 14.3906148,2.33100282 C14.5211617,2.40790284 14.6367045,2.50723249 14.7324116,2.62100282 L14.7324116,2.67279962 L12.7324116,2.67279962 Z M13,7 L11,7 L11.5,13 L12.5,13 L13,7 Z M12,17 C12.5522847,17 13,16.5522847 13,16 C13,15.4477153 12.5522847,15 12,15 C11.4477153,15 11,15.4477153 11,16 C11,16.5522847 11.4477153,17 12,17 Z" fill="currentColor"></path>
</svg> 